<?xml version="1.0" encoding="UTF-8"?>
<svg width="23px" height="24px" viewBox="0 0 23 24" version="1.1" xmlns="http://www.w3.org/2000/svg" xmlns:xlink="http://www.w3.org/1999/xlink">
    <title>↳ Icon Left</title>
    <g id="Make-A-Pledge" stroke="none" stroke-width="1" fill="none" fill-rule="evenodd">
        <g id="Make-Pledge/04-Success" transform="translate(-928.000000, -899.000000)" fill="#21242C">
            <g id="_Root-Icon" transform="translate(928.000000, 899.000000)">
                <path d="M14.5,0.75 C15.6045695,0.75 16.5,1.6454305 16.5,2.75 L16.5,21.25 C16.5,22.3545695 15.6045695,23.25 14.5,23.25 L2.75,23.25 C1.6454305,23.25 0.75,22.3545695 0.75,21.25 L0.75,2.75 C0.75,1.6454305 1.6454305,0.75 2.75,0.75 L14.5,0.75 Z M22.5,19.5 L20.25,23.25 L18,19.5 L22.5,19.5 Z M20.25,3.75 C21.4926407,3.75 22.5,4.75735931 22.5,6 L22.5,18 L18,18 L18,6 C18,4.75735931 19.0073593,3.75 20.25,3.75 Z M9.75,14.25 L3.75,14.25 L3.75,17.25 L9.75,17.25 L9.75,14.25 Z M13.5,9 L3.75,9 L3.75,12 L13.5,12 L13.5,9 Z M13.5,3.75 L3.75,3.75 L3.75,6.75 L13.5,6.75 L13.5,3.75 Z" id="Combined-Shape"></path>
            </g>
        </g>
    </g>
</svg>