<?xml version="1.0" encoding="utf-8"?>
<!-- Generator: Adobe Illustrator 15.0.0, SVG Export Plug-In . SVG Version: 6.00 Build 0)  -->
<!DOCTYPE svg PUBLIC "-//W3C//DTD SVG 1.1//EN" "http://www.w3.org/Graphics/SVG/1.1/DTD/svg11.dtd">
<svg version="1.1" id="Layer_1" xmlns="http://www.w3.org/2000/svg" xmlns:xlink="http://www.w3.org/1999/xlink" x="0px" y="0px"
	 width="160px" height="52px" viewBox="0 0 160 52" enable-background="new 0 0 160 52" xml:space="preserve">
<title>Group 2</title>
<desc>Created with Sketch.</desc>
<g id="Final">
	<g id="_x30_1-Homepage_x2F_11" transform="translate(-175.000000, -20.000000)">
		<g id="Group-2" transform="translate(175.000000, 20.000000)">
			<g id="App-Icon">
				<g id="Group" transform="translate(-0.000000, -0.000000)">
					<path id="_x30_3-Color" fill="#294766" d="M11.578,0h28.844C46.816,0,52,5.184,52,11.578v28.844C52,46.816,46.816,52,40.422,52
						H11.578C5.184,52,0,46.816,0,40.422V11.578C0,5.184,5.184,0,11.578,0z"/>
					<path id="_x30_2-Shadow" fill="#4296A5" fill-opacity="0.15" d="M26.268,38.054L26,38.199c-8.942,4.863-18.707,6.447-26,4.865
						V11.578C0,5.184,5.184,0,11.578,0h28.844C46.816,0,52,5.184,52,11.578v21.756C43.907,31.688,35.12,33.302,26.268,38.054
						L26.268,38.054z"/>
					<path id="_x30_2-Color" fill="#4296A5" d="M26.268,34.826L26,34.971c-8.942,4.864-18.707,6.447-26,4.865V11.578
						C0,5.184,5.184,0,11.578,0h28.844C46.816,0,52,5.184,52,11.578v18.527C43.907,28.459,35.12,30.074,26.268,34.826L26.268,34.826
						z"/>
					<path id="_x30_1-Shadow" fill="#5CE6E6" fill-opacity="0.15" d="M11.578,0h28.844C46.816,0,52,5.184,52,11.578v4.705
						c-8.093-1.646-16.88-0.032-25.732,4.72L26,21.148c-8.942,4.864-18.707,6.448-26,4.866V11.578C0,5.184,5.184,0,11.578,0z"/>
					<path id="_x30_1-Color" fill="#5CE6E6" d="M52,11.578v1.498c-8.093-1.646-16.88-0.032-25.732,4.72L26,17.941
						c-8.942,4.864-18.707,6.448-26,4.866V11.578C0,5.184,5.184,0,11.578,0h28.844C46.816,0,52,5.184,52,11.578z"/>
				</g>
			</g>
			<path id="UTILITYCO." fill="#FFFFFF" d="M75.309,4h-4.606v10.267c0,1.903,0.187,4.182,1.73,5.87
				c1.092,1.18,3.088,2.145,5.884,2.145c2.502,0,4.366-0.697,5.857-2.225c1.917-1.957,1.997-3.914,1.997-5.79V4h-4.605
				l-0.001,10.482c-0.005,0.946-0.076,2.1-1.038,2.947c-0.506,0.456-1.331,0.777-2.13,0.777s-1.65-0.349-2.183-0.858
				c-0.816-0.796-0.897-1.847-0.904-2.594L75.309,4z M100.234,7.874V4H88.281v3.874h3.714v13.704h4.525V7.874H100.234z M102.344,4
				v17.578h4.922V4H102.344z M110.781,4v17.578h9.844v-3.874h-5.374V4H110.781z M123.438,4v17.578h4.922V4H123.438z M141.719,7.874
				V4h-11.953v3.874h3.714v13.704h4.525V7.874H141.719z M148.802,21.578h4.606v-8.433L160,4h-5.56l-3.203,4.796L147.902,4h-5.48
				l6.38,9.145V21.578z M83.359,42.722c-1.602,1.768-3.281,1.847-3.963,1.847c-1.286,0-2.493-0.502-3.254-1.214
				c-0.918-0.87-1.417-2.216-1.417-3.429c0-1.24,0.446-2.612,1.522-3.614c0.806-0.735,1.758-1.129,2.994-1.159l0.156-0.002
				c0.761,0,2.494,0.105,3.963,1.926v-5.461c-1.89-0.765-3.254-0.896-4.094-0.896c-2.73,0-5.066,1.16-6.614,2.744
				C71.076,35.071,70,37.445,70,39.951c0,2.295,0.945,4.696,2.651,6.41C74.094,47.787,76.378,49,79.422,49
				c1.128,0,2.126-0.211,3.937-0.871V42.722z M105.156,39.873c0-2.335-0.91-4.801-2.809-6.558c-1.818-1.705-4.387-2.597-7.035-2.597
				s-5.217,0.892-7.035,2.597c-1.898,1.757-2.809,4.223-2.809,6.558c0,2.308,0.91,4.746,2.809,6.53
				C90.096,48.108,92.664,49,95.313,49s5.217-0.892,7.035-2.597C104.246,44.619,105.156,42.181,105.156,39.873z M95.313,34.938
				c1.204,0,2.539,0.49,3.508,1.445c0.813,0.818,1.414,2.072,1.414,3.49c0,1.391-0.602,2.645-1.414,3.49
				c-0.811,0.846-1.963,1.418-3.508,1.418c-1.519,0-2.697-0.6-3.534-1.445c-0.655-0.654-1.388-1.772-1.388-3.381
				c0-1.281,0.445-2.618,1.388-3.572C92.721,35.4,94.056,34.938,95.313,34.938z M110.092,49c-0.598,0-1.332-0.189-1.984-0.838
				c-0.353-0.352-0.842-1.001-0.842-1.975s0.489-1.623,0.842-1.975c0.652-0.648,1.387-0.838,1.984-0.838
				c0.68,0,1.413,0.271,2.011,0.865c0.462,0.46,0.788,1.055,0.788,1.947s-0.326,1.487-0.815,1.975
				C111.505,48.729,110.799,49,110.092,49z"/>
		</g>
	</g>
</g>
</svg>
