<?xml version="1.0" encoding="UTF-8"?>
<svg width="160px" height="52px" viewBox="0 0 160 52" version="1.1" xmlns="http://www.w3.org/2000/svg" xmlns:xlink="http://www.w3.org/1999/xlink">
    <!-- Generator: Sketch 58 (84663) - https://sketch.com -->
    <title>Group 2</title>
    <desc>Created with Sketch.</desc>
    <g id="Final" stroke="none" stroke-width="1" fill="none" fill-rule="evenodd">
        <g id="01-Homepage/11" transform="translate(-175.000000, -20.000000)">
            <g id="Group-2" transform="translate(175.000000, 20.000000)">
                <g id="App-Icon">
                    <g id="Group" transform="translate(-0.000000, -0.000000)">
                        <path d="M11.578125,7.97285793e-10 L40.421875,7.97285793e-10 C46.8162969,7.97285793e-10 52,5.18370313 52,11.578125 L52,40.421875 C52,46.8162969 46.8162969,52 40.421875,52 L11.578125,52 C5.18370313,52 0,46.8162969 0,40.421875 L0,11.578125 C0,5.18370313 5.18370313,7.97285793e-10 11.578125,7.97285793e-10 Z" id="03-Color" fill="#294766"></path>
                        <path d="M26.2682378,38.0538652 L26,38.1988254 C17.058136,43.0628376 7.29345703,44.6465593 0,43.0643225 L0,11.578125 C0,5.18370313 5.18370313,0 11.578125,0 L40.421875,0 C46.8162969,0 52,5.18370313 52,11.578125 L52,33.3333283 C43.9071548,31.6877307 35.119464,33.3018717 26.2682378,38.0538652 L26.2682378,38.0538652 Z" id="02-Shadow" fill-opacity="0.15" fill="#4296A5" style="mix-blend-mode: multiply;"></path>
                        <path d="M26.2682378,34.8258001 L26,34.9707602 C17.058136,39.8347725 7.29345703,41.4184942 0,39.8362573 L0,11.578125 C0,5.18370313 5.18370313,7.93278332e-10 11.578125,7.93278332e-10 L40.421875,7.93278332e-10 C46.8162969,7.93278332e-10 52,5.18370313 52,11.578125 L52,30.1052632 C43.9071548,28.4596656 35.119464,30.0738065 26.2682378,34.8258001 L26.2682378,34.8258001 Z" id="02-Color" fill="#4296A5"></path>
                        <path d="M11.578125,7.9722895e-10 L40.421875,7.9722895e-10 C46.8162969,7.9722895e-10 52,5.18370313 52,11.578125 L52,16.2825513 C43.9071548,14.6369537 35.119464,16.2510946 26.2682378,21.0030882 L26,21.1480484 C17.058136,26.0120606 7.29345703,27.5957823 4.46220838e-11,26.0135454 L4.46220838e-11,11.578125 C4.46220838e-11,5.18370313 5.18370313,7.9722895e-10 11.578125,7.9722895e-10 Z" id="01-Shadow" fill-opacity="0.15" fill="#5CE6E6" style="mix-blend-mode: multiply;"></path>
                        <path d="M52,11.578125 L52,13.0760234 C43.9071548,11.4304258 35.119464,13.0445667 26.2682378,17.7965603 L26,17.9415205 C17.058136,22.8055327 7.29345703,24.3892544 4.46220838e-11,22.8070175 L4.46220838e-11,11.578125 C4.46220838e-11,5.18370313 5.18370313,7.97342636e-10 11.578125,7.97342636e-10 L40.421875,7.97342636e-10 C46.8162969,7.97342636e-10 52,5.18370313 52,11.578125 Z" id="01-Color" fill="#5CE6E6"></path>
                    </g>
                </g>
                <path d="M75.3091383,4 L70.703125,4 L70.703125,14.2664498 C70.703125,16.1696298 70.8894955,18.4480847 72.433708,20.1368218 C73.5253066,21.3162573 75.5221332,22.28125 78.3176904,22.28125 C80.8203797,22.28125 82.6840846,21.5843109 84.1750484,20.0564058 C86.0920019,18.0996151 86.171875,16.1428244 86.171875,14.2664498 L86.171875,4 L81.5658617,4 L81.5655962,14.4823808 C81.5607917,15.4285357 81.489424,16.5820863 80.5275118,17.4294813 C80.0216491,17.8851723 79.1962941,18.2068365 78.3975635,18.2068365 C77.5988328,18.2068365 76.7468535,17.8583669 76.2143664,17.3490652 C75.3985201,16.5525634 75.3172887,15.5018209 75.3098466,14.7548464 L75.3091383,4 Z M100.234375,7.87403954 L100.234375,4 L88.28125,4 L88.28125,7.87403954 L91.9953501,7.87403954 L91.9953501,21.578125 L96.5202749,21.578125 L96.5202749,7.87403954 L100.234375,7.87403954 Z M102.34375,4 L102.34375,21.578125 L107.265625,21.578125 L107.265625,4 L102.34375,4 Z M110.78125,4 L110.78125,21.578125 L120.625,21.578125 L120.625,17.7040855 L115.250984,17.7040855 L115.250984,4 L110.78125,4 Z M123.4375,4 L123.4375,21.578125 L128.359375,21.578125 L128.359375,4 L123.4375,4 Z M141.71875,7.87403954 L141.71875,4 L129.765625,4 L129.765625,7.87403954 L133.479725,7.87403954 L133.479725,21.578125 L138.00465,21.578125 L138.00465,7.87403954 L141.71875,7.87403954 Z M148.801887,21.578125 L153.408203,21.578125 L153.408203,13.1448416 L160,4 L154.440653,4 L151.237411,8.79642991 L147.901803,4 L142.421875,4 L148.801887,13.1448416 L148.801887,21.578125 Z M83.359375,42.7215909 C81.7583497,44.4890422 80.0785855,44.5681818 79.3961812,44.5681818 C78.1101117,44.5681818 76.9027812,44.0669643 76.141638,43.3547078 C75.2230169,42.4841721 74.7243369,41.1387987 74.7243369,39.9253247 C74.7243369,38.6854708 75.1705243,37.3137175 76.2466233,36.3112825 C77.0529101,35.5768669 78.0043286,35.1828149 79.240205,35.1524658 L79.3961812,35.1505682 C80.1573244,35.1505682 81.8895813,35.2560877 83.359375,37.0762987 L83.359375,31.6156656 C81.4696402,30.8506494 80.1048318,30.71875 79.2649497,30.71875 C76.5353328,30.71875 74.1994106,31.8794643 72.6508779,33.4622565 C71.076099,35.0714286 70,37.4456169 70,39.9517045 C70,42.2467532 70.9448674,44.6473214 72.6508779,46.362013 C74.0944253,47.786526 76.3778549,49 79.4224276,49 C80.5510192,49 81.5483792,48.788961 83.359375,48.1294643 L83.359375,42.7215909 Z M105.15625,39.8724892 C105.15625,37.5381546 104.246773,35.0726775 102.347571,33.3153694 C100.528618,31.6105183 97.9606827,30.71875 95.3125,30.71875 C92.6643173,30.71875 90.0963825,31.6105183 88.2774287,33.3153694 C86.3782269,35.0726775 85.46875,37.5381546 85.46875,39.8724892 C85.46875,42.1805954 86.3782269,44.619844 88.2774287,46.4033806 C90.0963825,48.1082317 92.6643173,49 95.3125,49 C97.9606827,49 100.528618,48.1082317 102.347571,46.4033806 C104.246773,44.619844 105.15625,42.1805954 105.15625,39.8724892 Z M95.3125,34.9375 C96.5167886,34.9375 97.8519781,35.4283241 98.8206449,36.3827043 C99.6322307,37.2007445 100.234375,38.4550727 100.234375,39.873009 C100.234375,41.2636773 99.6322307,42.5180055 98.8206449,43.3633137 C98.0090592,44.2086219 96.857131,44.78125 95.3125,44.78125 C93.7940492,44.78125 92.6159408,44.1813539 91.7781749,43.3360457 C91.1236702,42.6816136 90.390625,41.5636253 90.390625,39.954813 C90.390625,38.6732168 90.8356882,37.3370845 91.7781749,36.3827043 C92.7206616,35.4010561 94.0558511,34.9375 95.3125,34.9375 Z M110.091712,49 C109.493886,49 108.76019,48.8106971 108.108016,48.1616587 C107.754755,47.8100962 107.265625,47.1610577 107.265625,46.1875 C107.265625,45.2139423 107.754755,44.5649038 108.108016,44.2133413 C108.76019,43.5643029 109.493886,43.375 110.091712,43.375 C110.77106,43.375 111.504755,43.6454327 112.102582,44.2403846 C112.564538,44.7001202 112.890625,45.2950721 112.890625,46.1875 C112.890625,47.0799279 112.564538,47.6748798 112.075408,48.1616587 C111.504755,48.7295673 110.798234,49 110.091712,49 Z" id="UTILITYCO." fill="#294766" fill-rule="nonzero"></path>
            </g>
        </g>
    </g>
</svg>