<?xml version="1.0" encoding="UTF-8"?>
<svg width="47px" height="31px" viewBox="0 0 47 31" version="1.1" xmlns="http://www.w3.org/2000/svg" xmlns:xlink="http://www.w3.org/1999/xlink">
    <!-- Generator: Sketch 59.1 (86144) - https://sketch.com -->
    <title>Group</title>
    <desc>Created with Sketch.</desc>
    <defs>
        <rect id="path-1" x="0" y="0" width="47" height="31" rx="2"></rect>
    </defs>
    <g id="Billing---Payment-Methods" stroke="none" stroke-width="1" fill="none" fill-rule="evenodd">
        <g id="Payment-Methods" transform="translate(-576.000000, -385.000000)">
            <g id="Group" transform="translate(576.000000, 385.000000)">
                <g id="Visa-icon">
                    <mask id="mask-2" fill="white">
                        <use xlink:href="#path-1"></use>
                    </mask>
                    <rect stroke="#D5D5D5" x="0.5" y="0.5" width="46" height="30" rx="2"></rect>
                    <rect id="Rectangle-11-Copy-2" stroke="#F9A51A" fill="#F9A51A" mask="url(#mask-2)" x="0.5" y="0.5" width="46" height="4.16666667" rx="1"></rect>
                    <rect id="Rectangle-11-Copy-3" stroke="#00579F" fill="#00579F" mask="url(#mask-2)" x="0.5" y="26.3333333" width="46" height="4.16666667" rx="1"></rect>
                </g>
                <g id="visa-logo" transform="translate(7.000000, 12.000000)">
                    <polygon id="Fill-1" fill="#00579F" points="13.2769125 0.189333333 11.6089125 9.85674074 14.275725 9.85674074 15.94485 0.189333333"></polygon>
                    <g id="Group-10">
                        <path d="M23.9520187,0.427333333 C23.4234562,0.231407407 22.5952687,0.0214074074 21.5608312,0.0214074074 C18.9247687,0.0214074074 17.0675812,1.33251852 17.0518312,3.21159259 C17.0370187,4.60066667 18.3776437,5.37566667 19.3895812,5.83807407 C20.4279562,6.31177778 20.7770812,6.614 20.7722062,7.03714815 C20.7656437,7.68511111 19.9428937,7.98122222 19.1760187,7.98122222 C18.1082062,7.98122222 17.5410187,7.83474074 16.6648312,7.47381481 L16.3209563,7.32011111 L15.9465188,9.48418519 C16.5697687,9.754 17.7219562,9.98788889 18.9183937,9.99992593 C21.7228312,9.99992593 23.5434562,8.70381481 23.5642687,6.69714815 C23.5742062,5.59751852 22.8633937,4.76048148 21.3242062,4.07066667 C20.3917687,3.62344444 19.8206437,3.32492593 19.8266437,2.87214815 C19.8266437,2.4702963 20.3100187,2.04066667 21.3543937,2.04066667 C22.2270187,2.02733333 22.8588937,2.21511111 23.3512687,2.41103704 L23.5903312,2.52251852 L23.9520187,0.427333333" id="Fill-2" fill="#00579F"></path>
                        <path d="M27.5035313,6.42957407 C27.7242187,5.87253704 28.5664687,3.72716667 28.5664687,3.72716667 C28.5507187,3.75290741 28.7854687,3.16753704 28.9202812,2.80457407 L29.1006562,3.63809259 C29.1006562,3.63809259 29.6114062,5.94568519 29.7180937,6.42957407 L27.5035313,6.42957407 Z M30.7934062,0.198648148 L28.7318437,0.198648148 C28.0932187,0.198648148 27.6152812,0.370685185 27.3347812,1.00031481 L23.3725313,9.85975926 L26.1739688,9.85975926 C26.1739688,9.85975926 26.6322188,8.66846296 26.7357188,8.40698148 C27.0419063,8.40698148 29.7634687,8.41105556 30.1525312,8.41105556 C30.2324062,8.74938889 30.4770937,9.85975926 30.4770937,9.85975926 L32.9526562,9.85975926 L30.7934062,0.198648148 L30.7934062,0.198648148 Z" id="Fill-4" fill="#00579F"></path>
                        <path d="M9.37125,0.196388889 L6.7591875,6.7887963 L6.4809375,5.44898148 C5.99475,3.90453704 4.47975,2.23138889 2.785875,1.3937963 L5.17425,9.84824074 L7.9970625,9.84509259 L12.19725,0.196388889 L9.37125,0.196388889" id="Fill-6" fill="#00579F"></path>
                        <path d="M4.336125,0.190425926 L0.034125,0.190425926 L0,0.391537037 C3.3470625,1.19172222 5.561625,3.12561111 6.4809375,5.44894444 L5.5455,1.00653704 C5.383875,0.3945 4.9155,0.211722222 4.336125,0.190425926" id="Fill-8" fill="#F9A51A"></path>
                    </g>
                </g>
            </g>
        </g>
    </g>
</svg>