<?xml version="1.0" encoding="UTF-8"?>
<svg width="18px" height="16px" viewBox="0 0 18 16" version="1.1" xmlns="http://www.w3.org/2000/svg" xmlns:xlink="http://www.w3.org/1999/xlink">
    <title>Icon</title>
    <g id="Authentication" stroke="none" stroke-width="1" fill="none" fill-rule="evenodd">
        <g id="Artboard" transform="translate(-297.000000, -134.000000)" fill="#E06038">
            <g id="_Root-Icon" transform="translate(294.000000, 130.000000)">
                <path d="M12.101105,11.826611 C12.3198034,12.0577963 12.6759694,12.0577963 12.8977921,11.826611 L16.3001142,8.25885813 C17.2873813,7.22164803 17.2311447,5.50337827 16.1251556,4.54739548 C15.1628826,3.7132536 13.7288459,3.86321169 12.8478038,4.78795323 L12.4978864,5.15347608 L12.1510932,4.79107736 C11.2700511,3.86321169 9.83601443,3.7132536 8.87374146,4.54739548 C7.77087667,5.50337827 7.71151567,7.22164803 8.69878274,8.25885813 L12.101105,11.826611 Z M20.6646492,14.253125 C20.2959196,13.91875 19.7209513,13.9406249 19.3334727,14.253125 L16.4461323,16.5624999 C16.0930269,16.8468749 15.6524261,17 15.1962013,17 L11.4995305,17 C11.2245457,17 10.9995581,16.775 10.9995581,16.5 C10.9995581,16.225 11.2245457,16 11.4995305,16 L13.9462704,16 C14.4431179,16 14.9055924,15.6593749 14.9868379,15.16875 C15.0899572,14.54375 14.6087337,14 13.9993925,14 L8.99966859,14 C8.15596521,14 7.34038524,14.2906249 6.6841715,14.821875 L5.23112675,16 L3.49997237,16 C3.22498758,16 3,16.225 3,16.5 L3,19.5 C3,19.7749999 3.22498758,20 3.49997237,20 L14.6493565,20 C15.1024564,20 15.5430572,19.846875 15.8992875,19.5625 L20.6240265,15.7812499 C21.0990002,15.4031249 21.1364982,14.6781249 20.6646492,14.253125 Z" id="Shape"></path>
            </g>
        </g>
    </g>
</svg>