<?xml version="1.0" encoding="UTF-8"?>
<svg width="14px" height="20px" viewBox="0 0 14 20" version="1.1" xmlns="http://www.w3.org/2000/svg" xmlns:xlink="http://www.w3.org/1999/xlink">
    <title>Icon</title>
    <defs>
        <filter id="filter-1">
            <feColorMatrix in="SourceGraphic" type="matrix" values="0 0 0 0 0.878431 0 0 0 0 0.376471 0 0 0 0 0.219608 0 0 0 1.000000 0"></feColorMatrix>
        </filter>
    </defs>
    <g id="Authentication" stroke="none" stroke-width="1" fill="none" fill-rule="evenodd">
        <g id="Artboard" transform="translate(-51.000000, -132.000000)">
            <g id="location_on-24px" transform="translate(46.000000, 130.000000)">
                <g transform="translate(5.000000, 2.000000)">
                    <path d="M7,0 C3.13,0 0,3.13 0,7 C0,12.25 7,20 7,20 C7,20 14,12.25 14,7 C14,3.13 10.87,0 7,0 Z M2,7 C2,4.24 4.24,2 7,2 C9.76,2 12,4.24 12,7 C12,9.88 9.12,14.19 7,16.88 C4.92,14.21 2,9.85 2,7 Z" id="Shape" fill="#E06038" fill-rule="nonzero"></path>
                    <circle id="Oval" fill="#E06038" fill-rule="nonzero" cx="7" cy="7" r="2.5"></circle>
                </g>
            </g>
        </g>
    </g>
</svg>