<?xml version="1.0" encoding="UTF-8"?>
<svg width="18px" height="18px" viewBox="0 0 18 18" version="1.1" xmlns="http://www.w3.org/2000/svg" xmlns:xlink="http://www.w3.org/1999/xlink">
    <title>Icon</title>
    <defs>
        <filter id="filter-1">
            <feColorMatrix in="SourceGraphic" type="matrix" values="0 0 0 0 0.878431 0 0 0 0 0.376471 0 0 0 0 0.219608 0 0 0 1.000000 0"></feColorMatrix>
        </filter>
    </defs>
    <g id="Authentication" stroke="none" stroke-width="1" fill="none" fill-rule="evenodd">
        <g id="Artboard" transform="translate(-297.000000, -229.000000)">
            <g id="map-24px" transform="translate(294.000000, 226.000000)" >
                <g transform="translate(3.000000, 3.000000)">
                    <path d="M17.5,0 L17.34,0.03 L12,2.1 L6,0 L0.36,1.9 C0.15,1.97 0,2.15 0,2.38 L0,17.5 C0,17.78 0.22,18 0.5,18 L0.66,17.97 L6,15.9 L12,18 L17.64,16.1 C17.85,16.03 18,15.85 18,15.62 L18,0.5 C18,0.22 17.78,0 17.5,0 Z M7,2.47 L11,3.87 L11,15.53 L7,14.13 L7,2.47 Z M2,3.46 L5,2.45 L5,14.15 L2,15.31 L2,3.46 Z M16,14.54 L13,15.55 L13,3.86 L16,2.7 L16,14.54 Z" id="Shape" fill="#E06038" fill-rule="nonzero"></path>
                </g>
            </g>
        </g>
    </g>
</svg>