<?xml version="1.0" encoding="UTF-8"?>
<svg width="18px" height="18px" viewBox="0 0 18 18" version="1.1" xmlns="http://www.w3.org/2000/svg" xmlns:xlink="http://www.w3.org/1999/xlink">
    <title>Icon</title>
    <g id="Authentication" stroke="none" stroke-width="1" fill="none" fill-rule="evenodd">
        <g id="Artboard" transform="translate(-49.000000, -181.000000)" fill="#E06038">
            <g id="_Root-Icon" transform="translate(46.000000, 178.000000)">
                <path d="M13,3 L11,3 L11,13 L13,13 L13,3 Z M17.83,5.17 L16.41,6.59 C17.99,7.86 19,9.81 19,12 C19,15.87 15.87,19 12,19 C8.13,19 5,15.87 5,12 C5,9.81 6.01,7.86 7.58,6.58 L6.17,5.17 C4.23,6.82 3,9.26 3,12 C3,16.97 7.03,21 12,21 C16.97,21 21,16.97 21,12 C21,9.26 19.77,6.82 17.83,5.17 Z" id="Shape"></path>
            </g>
        </g>
    </g>
</svg>