<?xml version="1.0" encoding="utf-8"?>
<!-- Generator: Adobe Illustrator 15.0.0, SVG Export Plug-In . SVG Version: 6.00 Build 0)  -->
<!DOCTYPE svg PUBLIC "-//W3C//DTD SVG 1.1//EN" "http://www.w3.org/Graphics/SVG/1.1/DTD/svg11.dtd">
<svg version="1.1" id="Layer_1" xmlns="http://www.w3.org/2000/svg" xmlns:xlink="http://www.w3.org/1999/xlink" x="0px" y="0px"
	 width="60px" height="66px" viewBox="0 0 60 66" enable-background="new 0 0 60 66" xml:space="preserve">
<path fill="#ee7c20" d="M30.076,3.75h0.929c3.714,0.372,7.057,1.3,10.214,3.158c4.086,2.414,7.057,5.571,9.286,9.842
	c0.743,2.229,1.485,4.828,1.485,7.429c0.372,6.685-1.857,12.443-5.571,17.643c-5.571,6.872-11.144,13.744-16.156,20.429
	c-0.559,0-0.929-0.743-1.301-1.299c-5.015-6.13-10.029-12.444-14.857-18.944c-3.158-3.715-5.015-7.984-5.571-13
	c-1.3-5.385-0.372-10.956,2.971-15.412c3.714-5.017,8.729-8.172,14.857-9.286h2.601c0,0,0.557,0,0.742-0.374h0.559L30.076,3.75z
	 M30.076,18.607c-4.086,0-7.429,3.158-7.429,7.429c0,3.714,3.343,7.429,7.429,7.429s7.429-3.714,7.429-7.429
	C37.505,21.765,33.79,18.607,30.076,18.607z"/>
</svg>
